<svg width="32" height="32" viewBox="0 0 32 32" fill="none" xmlns="http://www.w3.org/2000/svg">
<path d="M16 7.99991L8.58667 13.3332L4.25334 10.3999C3.48001 9.87989 3.46669 8.75991 4.22669 8.21325L9.33334 4.53323C9.78667 4.21323 10.4 4.19991 10.8534 4.50658L16 7.99991Z" fill="#5820E5"/>
<path d="M27.7467 10.4L23.4133 13.3333L16 7.99997L21.1466 4.51999C21.6133 4.21332 22.2133 4.21331 22.6667 4.54664L27.7733 8.22666C28.5333 8.75999 28.52 9.87996 27.7467 10.4Z" fill="#5820E5"/>
<path d="M16.0001 18.6666L10.0801 22.6666L6.66672 20.2133L4.21339 18.4532C3.46673 17.9066 3.48005 16.7866 4.24005 16.2666L8.57338 13.3333L16.0001 18.6666Z" fill="#5820E5"/>
<path d="M27.7467 16.2666C28.52 16.7866 28.5334 17.9066 27.7734 18.4532L25.32 20.2133L21.9067 22.6666L15.9867 18.6666L23.4 13.3333L27.7467 16.2666Z" fill="#5820E5"/>
<path d="M24.9066 23.12C25.08 22.9867 25.3333 23.12 25.3333 23.3333V24.3067C25.3333 24.8267 25.0266 25.2934 24.56 25.52L16.56 29.2134C16.2 29.3734 15.7999 29.3734 15.4399 29.2134L7.43994 25.52C6.97327 25.2934 6.66663 24.8267 6.66663 24.3067V23.3333C6.66663 23.12 6.90664 22.9867 7.0933 23.12L9.66663 24.9734C9.89329 25.1334 10.2 25.1467 10.4266 24.9867L15.6266 21.4667C15.8533 21.32 16.1466 21.32 16.3733 21.4667L21.5733 24.9867C21.7999 25.1467 22.1066 25.1334 22.3333 24.9734L24.9066 23.12Z" fill="#5820E5"/>
</svg>
