<svg width="107" height="71" viewBox="0 0 107 71" fill="none" xmlns="http://www.w3.org/2000/svg">
<path d="M0 4C0 1.79086 1.79086 0 4 0H95C101.627 0 107 5.37258 107 12V48C107 54.6274 101.627 60 95 60H0V4Z" fill="#5820E5"/>
<path d="M0 60H12V71L0 60Z" fill="#2600B3"/>
<path d="M71.9999 20L62.7333 26.6667L57.3166 23C56.3499 22.35 56.3333 20.95 57.2833 20.2667L63.6666 15.6667C64.2332 15.2667 64.9999 15.25 65.5666 15.6333L71.9999 20Z" fill="white"/>
<path d="M86.6833 22.9999L81.2667 26.6666L72 19.9999L78.4333 15.6499C79.0166 15.2666 79.7667 15.2666 80.3333 15.6832L86.7166 20.2833C87.6666 20.9499 87.65 22.3499 86.6833 22.9999Z" fill="white"/>
<path d="M71.9999 33.3334L64.5999 38.3334L60.3333 35.2668L57.2666 33.0667C56.3333 32.3834 56.3499 30.9834 57.2999 30.3334L62.7166 26.6667L71.9999 33.3334Z" fill="white"/>
<path d="M86.6834 30.3334C87.6501 30.9834 87.6667 32.3834 86.7167 33.0667L83.6501 35.2668L79.3834 38.3334L71.9834 33.3334L81.2501 26.6667L86.6834 30.3334Z" fill="white"/>
<path d="M83.1332 38.9C83.3499 38.7333 83.6666 38.9 83.6666 39.1666V40.3833C83.6666 41.0333 83.2833 41.6166 82.6999 41.9L72.6999 46.5166C72.2499 46.7166 71.7499 46.7166 71.2999 46.5166L61.2999 41.9C60.7166 41.6166 60.3333 41.0333 60.3333 40.3833V39.1666C60.3333 38.9 60.6333 38.7333 60.8666 38.9L64.0833 41.2166C64.3666 41.4166 64.7499 41.4333 65.0333 41.2333L71.5333 36.8333C71.8166 36.65 72.1832 36.65 72.4666 36.8333L78.9666 41.2333C79.2499 41.4333 79.6333 41.4166 79.9166 41.2166L83.1332 38.9Z" fill="white"/>
</svg>
