<svg width="107" height="71" viewBox="0 0 107 71" fill="none" xmlns="http://www.w3.org/2000/svg">
<path d="M107 4C107 1.79086 105.209 0 103 0H12C5.37258 0 0 5.37258 0 12V48C0 54.6274 5.37258 60 12 60H107V4Z" fill="#5820E5"/>
<path d="M107 60H95V71L107 60Z" fill="#2600B3"/>
<path d="M35 20L25.7334 26.6667L20.3167 23C19.35 22.35 19.3334 20.95 20.2834 20.2667L26.6667 15.6667C27.2334 15.2667 28.0001 15.25 28.5667 15.6333L35 20Z" fill="white"/>
<path d="M49.6833 22.9999L44.2667 26.6666L35 19.9999L41.4333 15.6499C42.0166 15.2666 42.7667 15.2666 43.3333 15.6832L49.7166 20.2833C50.6666 20.9499 50.65 22.3499 49.6833 22.9999Z" fill="white"/>
<path d="M35.0001 33.3334L27.6001 38.3334L23.3334 35.2668L20.2667 33.0667C19.3334 32.3834 19.3501 30.9834 20.3001 30.3334L25.7167 26.6667L35.0001 33.3334Z" fill="white"/>
<path d="M49.6833 30.3334C50.65 30.9834 50.6666 32.3834 49.7166 33.0667L46.6499 35.2668L42.3833 38.3334L34.9833 33.3334L44.2499 26.6667L49.6833 30.3334Z" fill="white"/>
<path d="M46.1334 38.9C46.35 38.7333 46.6667 38.9 46.6667 39.1666V40.3833C46.6667 41.0333 46.2834 41.6166 45.7001 41.9L35.7001 46.5166C35.2501 46.7166 34.75 46.7166 34.3 46.5166L24.3 41.9C23.7167 41.6166 23.3334 41.0333 23.3334 40.3833V39.1666C23.3334 38.9 23.6334 38.7333 23.8667 38.9L27.0834 41.2166C27.3667 41.4166 27.7501 41.4333 28.0334 41.2333L34.5334 36.8333C34.8167 36.65 35.1834 36.65 35.4667 36.8333L41.9667 41.2333C42.25 41.4333 42.6334 41.4166 42.9167 41.2166L46.1334 38.9Z" fill="white"/>
</svg>
