<svg width="52" height="52" viewBox="0 0 52 52" fill="none" xmlns="http://www.w3.org/2000/svg">
<g clip-path="url(#clip0_22_504)">
<g filter="url(#filter0_f_22_504)">
<path d="M7.8 1H44.2L52 23.9778C52 23.9778 35.9077 28.0781 25.35 27.9989C15.2924 27.9234 0 23.9778 0 23.9778L7.8 1Z" fill="url(#paint0_linear_22_504)" fill-opacity="0.5"/>
</g>
<g filter="url(#filter1_f_22_504)">
<path d="M12 0H40V0.221044C40 1.23541 39.2406 2.08804 38.2317 2.19321C35.4434 2.48387 29.9379 3 26 3C22.0621 3 16.5566 2.48387 13.7683 2.19321C12.7594 2.08804 12 1.23541 12 0.221044V0Z" fill="#5820E5"/>
</g>
<g filter="url(#filter2_f_22_504)">
<rect y="49" width="52" height="3" fill="#5820E5"/>
</g>
<path d="M26.0001 20.0001L20.4401 24.0001L17.1901 21.8C16.6101 21.41 16.6001 20.5701 17.1701 20.1601L21.0001 17.4C21.3401 17.16 21.8001 17.1501 22.1401 17.3801L26.0001 20.0001Z" fill="#5820E5"/>
<path d="M34.81 21.8L31.56 24L26 20L29.86 17.3901C30.21 17.1601 30.66 17.16 31 17.41L34.83 20.1701C35.4 20.5701 35.39 21.41 34.81 21.8Z" fill="#5820E5"/>
<path d="M25.9999 28L21.5599 31L18.9999 29.16L17.1599 27.84C16.5999 27.43 16.6099 26.59 17.1799 26.2L20.4299 24L25.9999 28Z" fill="#5820E5"/>
<path d="M34.81 26.2C35.39 26.59 35.4 27.43 34.83 27.84L32.99 29.16L30.43 31L25.99 28L31.55 24L34.81 26.2Z" fill="#5820E5"/>
<path d="M32.68 31.3401C32.81 31.2401 33 31.3401 33 31.5001V32.2301C33 32.6201 32.77 32.9701 32.42 33.1401L26.42 35.9101C26.15 36.0301 25.85 36.0301 25.58 35.9101L19.58 33.1401C19.23 32.9701 19 32.6201 19 32.2301V31.5001C19 31.3401 19.18 31.2401 19.32 31.3401L21.25 32.7301C21.42 32.8501 21.65 32.8601 21.82 32.7401L25.72 30.1001C25.89 29.9901 26.11 29.9901 26.28 30.1001L30.18 32.7401C30.35 32.8601 30.58 32.8501 30.75 32.7301L32.68 31.3401Z" fill="#5820E5"/>
</g>
<rect x="0.5" y="0.5" width="51" height="51" rx="11.5" stroke="#5820E5"/>
<defs>
<filter id="filter0_f_22_504" x="-4" y="-3" width="60" height="35" filterUnits="userSpaceOnUse" color-interpolation-filters="sRGB">
<feFlood flood-opacity="0" result="BackgroundImageFix"/>
<feBlend mode="normal" in="SourceGraphic" in2="BackgroundImageFix" result="shape"/>
<feGaussianBlur stdDeviation="2" result="effect1_foregroundBlur_22_504"/>
</filter>
<filter id="filter1_f_22_504" x="10" y="-2" width="32" height="7" filterUnits="userSpaceOnUse" color-interpolation-filters="sRGB">
<feFlood flood-opacity="0" result="BackgroundImageFix"/>
<feBlend mode="normal" in="SourceGraphic" in2="BackgroundImageFix" result="shape"/>
<feGaussianBlur stdDeviation="1" result="effect1_foregroundBlur_22_504"/>
</filter>
<filter id="filter2_f_22_504" x="-4" y="45" width="60" height="11" filterUnits="userSpaceOnUse" color-interpolation-filters="sRGB">
<feFlood flood-opacity="0" result="BackgroundImageFix"/>
<feBlend mode="normal" in="SourceGraphic" in2="BackgroundImageFix" result="shape"/>
<feGaussianBlur stdDeviation="2" result="effect1_foregroundBlur_22_504"/>
</filter>
<linearGradient id="paint0_linear_22_504" x1="26" y1="1" x2="26" y2="26.1591" gradientUnits="userSpaceOnUse">
<stop stop-color="#5820E5"/>
<stop offset="1" stop-color="#5820E5" stop-opacity="0"/>
</linearGradient>
<clipPath id="clip0_22_504">
<rect width="52" height="52" rx="12" fill="white"/>
</clipPath>
</defs>
</svg>
