<svg width="40" height="40" viewBox="0 0 40 40" fill="none" xmlns="http://www.w3.org/2000/svg">
<path d="M19.9999 9.99999L10.7333 16.6667L5.31658 13C4.34992 12.35 4.33327 10.95 5.28327 10.2667L11.6666 5.66664C12.2332 5.26664 12.9999 5.25 13.5666 5.63333L19.9999 9.99999Z" fill="#5820E5"/>
<path d="M34.6833 13L29.2667 16.6667L20 10L26.4333 5.65004C27.0166 5.2667 27.7667 5.26669 28.3333 5.68335L34.7166 10.2834C35.6666 10.95 35.65 12.35 34.6833 13Z" fill="#5820E5"/>
<path d="M19.9999 23.3333L12.5999 28.3333L8.33328 25.2667L5.26662 23.0667C4.33329 22.3833 4.34994 20.9834 5.29994 20.3334L10.7166 16.6667L19.9999 23.3333Z" fill="#5820E5"/>
<path d="M34.6834 20.3334C35.6501 20.9834 35.6667 22.3833 34.7167 23.0667L31.6501 25.2667L27.3834 28.3333L19.9834 23.3333L29.2501 16.6667L34.6834 20.3334Z" fill="#5820E5"/>
<path d="M31.1332 28.9C31.3499 28.7333 31.6666 28.9 31.6666 29.1667V30.3834C31.6666 31.0334 31.2833 31.6167 30.6999 31.9L20.6999 36.5167C20.2499 36.7167 19.7499 36.7167 19.2999 36.5167L9.2999 31.9C8.71656 31.6167 8.33325 31.0334 8.33325 30.3834V29.1667C8.33325 28.9 8.63326 28.7333 8.8666 28.9L12.0833 31.2167C12.3666 31.4167 12.7499 31.4333 13.0333 31.2333L19.5333 26.8334C19.8166 26.65 20.1832 26.65 20.4666 26.8334L26.9666 31.2333C27.2499 31.4333 27.6333 31.4167 27.9166 31.2167L31.1332 28.9Z" fill="#5820E5"/>
</svg>
