<svg width="40" height="40" viewBox="0 0 40 40" fill="none" xmlns="http://www.w3.org/2000/svg">
<path d="M20 10L10.7334 16.6667L5.31671 13C4.35004 12.35 4.33339 10.95 5.28339 10.2667L11.6667 5.66666C12.2334 5.26666 13.0001 5.25001 13.5667 5.63335L20 10Z" fill="white"/>
<path d="M34.6833 12.9999L29.2667 16.6666L20 9.9999L26.4333 5.64993C27.0166 5.26659 27.7667 5.26658 28.3333 5.68324L34.7166 10.2833C35.6666 10.9499 35.65 12.3499 34.6833 12.9999Z" fill="white"/>
<path d="M20.0001 23.3334L12.6001 28.3334L8.3334 25.2668L5.26674 23.0667C4.33341 22.3834 4.35006 20.9834 5.30006 20.3334L10.7167 16.6667L20.0001 23.3334Z" fill="white"/>
<path d="M34.6833 20.3334C35.65 20.9834 35.6666 22.3834 34.7166 23.0667L31.6499 25.2668L27.3833 28.3334L19.9833 23.3334L29.2499 16.6667L34.6833 20.3334Z" fill="white"/>
<path d="M31.1334 28.9C31.35 28.7333 31.6667 28.9 31.6667 29.1666V30.3833C31.6667 31.0333 31.2834 31.6166 30.7001 31.9L20.7001 36.5166C20.2501 36.7166 19.75 36.7166 19.3 36.5166L9.30002 31.9C8.71668 31.6166 8.33337 31.0333 8.33337 30.3833V29.1666C8.33337 28.9 8.63339 28.7333 8.86672 28.9L12.0834 31.2166C12.3667 31.4166 12.7501 31.4333 13.0334 31.2333L19.5334 26.8333C19.8167 26.65 20.1834 26.65 20.4667 26.8333L26.9667 31.2333C27.25 31.4333 27.6334 31.4166 27.9167 31.2166L31.1334 28.9Z" fill="white"/>
</svg>
